<?xml version="1.0" encoding="iso-8859-1"?>
<!-- Generator: Adobe Illustrator 19.0.0, SVG Export Plug-In . SVG Version: 6.00 Build 0)  -->
<svg version="1.1" id="Capa_1" xmlns="http://www.w3.org/2000/svg" xmlns:xlink="http://www.w3.org/1999/xlink" x="0px" y="0px"
	 viewBox="0 0 464 464" style="enable-background:new 0 0 464 464;" xml:space="preserve">
<path style="fill:#1F6C8C;" d="M144,224h176c44.183,0,80,35.817,80,80v56l0,0H64l0,0v-56C64,259.817,99.817,224,144,224z"/>
<path style="fill:#DC4D41;" d="M440,464H24v-72c0-53.019,42.981-96,96-96h224c53.019,0,96,42.981,96,96V464z"/>
<g>
	<path style="fill:#C7463B;" d="M168,304v64c0,10.072-4.742,19.557-12.8,25.6L104,432v-40l19.2-14.4
		c8.058-6.043,12.8-15.528,12.8-25.6v-48H168z"/>
	<path style="fill:#C7463B;" d="M296,304v64c0,10.072,4.742,19.557,12.8,25.6L360,432v-40l-19.2-14.4
		c-8.058-6.043-12.8-15.528-12.8-25.6v-48H296z"/>
</g>
<g>
	<path style="fill:#3B869E;" d="M168,296v64c0,10.072-4.742,19.557-12.8,25.6L104,424v-40l19.2-14.4
		c8.058-6.043,12.8-15.528,12.8-25.6v-48H168z"/>
	<path style="fill:#3B869E;" d="M296,296v64c0,10.072,4.742,19.557,12.8,25.6L360,424v-40l-19.2-14.4
		c-8.058-6.043-12.8-15.528-12.8-25.6v-48H296z"/>
</g>
<g>
	<path style="fill:#FDC9A6;" d="M200,256h64l0,0v48c0,17.673-14.327,32-32,32s-32-14.327-32-32V256L200,256z"/>
	<path style="fill:#FDC9A6;" d="M24,432h80v32H24V432z"/>
	<path style="fill:#FDC9A6;" d="M360,432h80v32h-80V432z"/>
</g>
<path style="fill:#F6BB92;" d="M200,240h64l0,0v8c0,17.673-14.327,32-32,32s-32-14.327-32-32V240L200,240z"/>
<path style="fill:#FDC9A6;" d="M144,64h176l0,0v112c0,48.601-39.399,88-88,88s-88-39.399-88-88V64L144,64z"/>
<path style="fill:#D68F29;" d="M144,64v72l26.12-8.704c13.067-4.356,21.881-16.586,21.88-30.36V88l37.152,22.288
	c25.177,15.117,57.412,11.159,78.184-9.6L320,88V64L144,64z"/>
<g>
	<path style="fill:#804D35;" d="M192,168c-4.418,0-8-3.582-8-8v-8c0-4.418,3.582-8,8-8s8,3.582,8,8v8
		C200,164.418,196.418,168,192,168z"/>
	<path style="fill:#804D35;" d="M272,168c-4.418,0-8-3.582-8-8v-8c0-4.418,3.582-8,8-8s8,3.582,8,8v8
		C280,164.418,276.418,168,272,168z"/>
	<path style="fill:#804D35;" d="M232,200c-1.238,0-2.46-0.288-3.568-0.84l-16-8c-3.953-1.973-5.558-6.778-3.584-10.731
		c0.15-0.3,0.318-0.59,0.504-0.869l16-24c2.452-3.676,7.42-4.668,11.096-2.216c3.676,2.452,4.668,7.42,2.216,11.096l-10.984,16.456
		l7.896,3.944c3.954,1.971,5.562,6.774,3.591,10.729C237.813,198.286,235.037,200.003,232,200L232,200z"/>
	<path style="fill:#804D35;" d="M232,231.92c-13.41-0.296-26.129-6.01-35.256-15.84l-2.4-2.44l11.344-11.28l2.4,2.4
		c11.441,13.208,31.423,14.642,44.631,3.201c1.142-0.989,2.212-2.059,3.201-3.201l2.4-2.4l11.344,11.28l-2.4,2.4
		C258.142,225.887,245.419,231.616,232,231.92L232,231.92z"/>
</g>
<g>
	<path style="fill:#F6BB92;" d="M136,128h8l0,0v48l0,0h-8c-13.255,0-24-10.745-24-24S122.745,128,136,128z"/>
	<path style="fill:#F6BB92;" d="M328,176h-8l0,0v-48l0,0h8c13.255,0,24,10.745,24,24S341.255,176,328,176z"/>
</g>
<path style="fill:#89B140;" d="M208,0h48c35.346,0,64,28.654,64,64l0,0H144l0,0C144,28.654,172.654,0,208,0z"/>
<path style="fill:#79A73A;" d="M144,56h248v16H144V56z"/>
<g>
</g>
<g>
</g>
<g>
</g>
<g>
</g>
<g>
</g>
<g>
</g>
<g>
</g>
<g>
</g>
<g>
</g>
<g>
</g>
<g>
</g>
<g>
</g>
<g>
</g>
<g>
</g>
<g>
</g>
</svg>
